name processed_emg_signals
nRows=60
nColumns=7
 
endheader
time	RGLTMED	RRF	RADDLONG	RST	RTA	RGM
2.1751999999999985	0.0393854444881254	0.0822345297979115	0.4864209208178647	0.0705488617389822	0.0926938260903397	0.1217537055092808
2.1851999999999983	0.0394591668575815	0.0826334756487569	0.487346524739035	0.0707718245032478	0.0928845291021471	0.1218345487698821
2.1951999999999985	0.0395267335394256	0.083029921882899	0.488375380946519	0.0709960309737991	0.0930802298420251	0.1219035157349027
2.2051999999999983	0.0395881098158559	0.0834236347080664	0.489507533276797	0.0712212838463752	0.0932806765764031	0.1219601599619992
2.215199999999998	0.0396432710141235	0.0838143866781252	0.4907429515154448	0.071447390318127	0.0934856180164581	0.1220040594286438
2.2251999999999983	0.0396922025709891	0.0842019565584382	0.4920815292376718	0.0716741623225629	0.0936948033093609	0.1220348177029587
2.235199999999998	0.0397349000711372	0.0845861291709165	0.4935230816697069	0.0719014167243735	0.0939079820159664	0.1220520650272604
2.2451999999999983	0.0397713692588543	0.0849666952216734	0.4950673435842456	0.07212897547356	0.0941249040762379	0.1220554593082749
2.255199999999998	0.0398016260225488	0.085343451114143	0.4967139672443901	0.0723566657185422	0.0943453197639602	0.1220446870082994
2.2651999999999983	0.0398256963519987	0.0857161987504389	0.498462520411333	0.0725843198783311	0.0945689796325541	0.1220194639319731
2.275199999999998	0.0398436162684551	0.0860847453235995	0.5003124844316358	0.0728117756744648	0.0947956344541193	0.1219795359039943
2.2851999999999983	0.0398554317279041	0.0864489031033384	0.5022632524205403	0.0730388761240547	0.0950250351541028	0.1219246793341193
2.295199999999998	0.0398611984978936	0.0868084892178084	0.5043141275580939	0.0732654694958957	0.0952569327441612	0.1218547016669763
2.3051999999999984	0.0398609820084283	0.0871633254338239	0.5064643215149096	0.0734914092319511	0.095491078255856	0.1217694417155622
2.315199999999998	0.0398548571775057	0.0875132379378384	0.5087129530241525	0.0737165538367678	0.0957272226776935	0.1216687698785764
2.3251999999999984	0.0398429082119602	0.0878580571198573	0.5110590466158192	0.0739407667374536	0.0959651168978783	0.1215525882428692
2.335199999999998	0.0398252283842995	0.0881976173623465	0.5135015315284899	0.0741639161169516	0.0962045116549485	0.1214208305731848
2.3451999999999984	0.0398019197862611	0.0885317568360712	0.516039240812562	0.074385874723475	0.0964451574982975	0.121273462192193
2.355199999999998	0.0397730930598756	0.0888603173046575	0.518670910637681	0.0746065196590469	0.0966868047604381	0.1211104797547749
2.365199999999998	0.0397388671069366	0.0891831439394757	0.5213951798157134	0.0748257321500635	0.0969292035426987	0.1209319109216024
2.375199999999998	0.0396993687779003	0.0895000851461968	0.524210589549162	0.0750433973026929	0.0971721037159205	0.1207378139379897
2.385199999999998	0.0396547325413784	0.0898109924041474	0.5271155834132932	0.075259403845815	0.0974152549375561	0.1205282771245592
2.395199999999998	0.0396051001354761	0.0901157201193734	0.5301085075785096	0.075473643864151	0.0976584066864878	0.1203034182865235
2.405199999999998	0.0395506202023201	0.0904141254921926	0.5331876112776297	0.0756860125242505	0.0979013083167991	0.1200633840483954
2.4151999999999982	0.0394914479071868	0.0907060683999015	0.5363510475208393	0.0758964077959876	0.0981437091316841	0.1198083491208183
2.425199999999998	0.0394277445436811	0.0909914112952671	0.5395968740592708	0.0761047301722237	0.0983853584785108	0.1195385155059714
2.4351999999999983	0.0393596771264868	0.0912700191214926	0.5429230545965152	0.0763108823892252	0.0986260058658979	0.1192541116476621
2.445199999999998	0.0392874179732405	0.0915417592444542	0.5463274602458701	0.0765147691503422	0.0988654011035082	0.1189553915318057
2.4551999999999983	0.0392111442771388	0.0918065014030578	0.5498078712298615	0.076716296855299	0.0991032944651862	0.1186426337426146
2.465199999999998	0.0391310376718657	0.0920641176785149	0.5533619788178685	0.0769153733372622	0.0993394368760316	0.1183161404794662
2.4751999999999983	0.0390472837904557	0.0923144824831774	0.5569873874978873	0.077111907609639	0.0995735801239704	0.1179762365392209
2.485199999999998	0.0389600718197001	0.0925574725693645	0.5606816173796542	0.0773058096243151	0.099805477096292	0.1176232682685811
2.495199999999998	0.0388695940517488	0.0927929670583481	0.5644421068281374	0.0774969900428142	0.1000348820414406	0.1172576024909824
2.505199999999998	0.0387760454345515	0.093020847489399	0.568266215328303	0.0776853600216264	0.1002615508561981	0.1168796254123252
2.515199999999998	0.0386796231227321	0.0932409978884824	0.5721512265834863	0.0778708310127369	0.1004852413981597	0.1164897415096796
2.525199999999998	0.0385805260304067	0.0934533048559431	0.5760943518503691	0.0780533145801668	0.1007057138232603	0.1160883724068854
2.535199999999998	0.0384789543873336	0.0936576576723245	0.5800927335136514	0.0782327222331261	0.100922730947891	0.1156759557408412
2.545199999999998	0.0383751092996808	0.0938539484213281	0.5841434489031494	0.0784089652761836	0.1011360586350072	0.1152529440221156
2.555199999999998	0.0382691923165967	0.0940420721288663	0.5882435143552899	0.0785819546766986	0.1013454662033944	0.1148198034933793
2.565199999999998	0.0381614050036989	0.0942219269171177	0.5923898895197903	0.0787516009496904	0.1015507268590526	0.1143770129889593
2.575199999999998	0.0380519485245274	0.0943934141724448	0.5965794819108706	0.0789178140602994	0.1017516181473911	0.1139250627986363
2.585199999999998	0.0379410232309494	0.0945564387259718	0.600809151700854	0.0790805033439992	0.1019479224246889	0.1134644535385835
2.595199999999998	0.037828828263417	0.0947109090455474	0.6050757167523748	0.0792395774447645	0.1021394273470925	0.1129956950321161
2.605199999999998	0.0377155611619334	0.0948567374377719	0.6093759578836484	0.0793949442714342	0.1023259263751929	0.1125193052026511
2.615199999999998	0.0376014174885263	0.0949938402587587	0.6137066243593333	0.0795465109726044	0.1025072192920204	0.1120358089810111
2.625199999999998	0.0374865904620216	0.0951221381323077	0.6180644395976831	0.0796941839304858	0.1026831127320311	0.1115457372289744
2.635199999999998	0.0373712706058995	0.0952415561741319	0.6224461070829229	0.0798378687741955	0.1028534207183828	0.1110496256808291
2.6451999999999978	0.0372556454100437	0.0953520242207262	0.6268483164702686	0.0799774704129494	0.1030179652055219	0.1105480139046101
2.655199999999998	0.0371398990071575	0.0954534770614303	0.6312677498696768	0.0801128930896031	0.1031765766238032	0.1100414442847097
2.665199999999998	0.0370242118645785	0.0955458546721833	0.6357010882931784	0.0802440404549122	0.1033290944225912	0.1095304610274686
2.675199999999998	0.0369087604921327	0.0956291024494959	0.640145018249464	0.0803708156628431	0.1034753676080041	0.1090156091912648
2.685199999999998	0.0367937171666036	0.0957031714431972	0.6445962384681476	0.0804931214871398	0.1036152552711848	0.1084974337425203
2.695199999999998	0.0366792496732818	0.0957680185865943	0.6490514667349502	0.0806108604592623	0.1037486271027156	0.1079764786390103
2.705199999999998	0.0365655210649797	0.095823606922833	0.6535074468180484	0.0807239350276644	0.1038753638885776	0.1074532859418742
2.715199999999998	0.0364526894388048	0.0958699058263529	0.657960955465197	0.0808322477382315	0.1039953579829496	0.1069283949577618
2.725199999999998	0.0363409077309359	0.0959068912184566	0.6624088094507605	0.0809357014355012	0.1041085137531971	0.1064023414125307
2.735199999999998	0.0362303235295986	0.0959345457760819	0.6668478726513947	0.0810341994840799	0.1042147479926866	0.1058756566579399
2.745199999999998	0.0361210789063972	0.0959528591330008	0.6712750631285836	0.0811276460094481	0.1043139902974977	0.1053488669126904
2.755199999999998	0.0360133102661041	0.0959618280728426	0.6756873601955353	0.0812159461571518	0.1044061834036557	0.1048224925391457
2.765199999999998	0.0359071482149457	0.0959614567135376	0.6800818114450267	0.0812990063692958	0.1044912834819791	0.1042970473570086
